<svg xmlns="http://www.w3.org/2000/svg" width="640" height="400" viewBox="0 0 640 400">
  <defs>
    <style>
      .cls-1 {
        fill-rule: evenodd;
      }
    </style>
  </defs>
  <path id="Color_Fill_2" data-name="Color Fill 2" class="cls-1" d="M123,74H103l-1-3-5-1v1l-3,1,1,2c8.953,3.3,22.527,4.126,27,12,2.721,2.668,2.113,9.591,2,15-3.4,3.042-3.538,7.566-9,9-4.056,4.274-26.341,4.057-32,1l-1-2c-3.014-2-4.982-1.951-6-6-2.162-1.848-2.877-5.1-3-9H93c0.607,2.393.317,1.858,2,3,1.223,1.336,5.992,2.45,8,1V97c1.139-1.139.4,0,1-2l-3-1V93H99V92H95L80,87V86l-4-3c-1.153-1.676-.035-2.258-2-4V68c1.8-1.545,2.349-4.308,4-6l7-5c9.576-.591,22.867-2.53,30,2l1,2h2l1,3h1c0.96,1.219.74,1.931,2,3Q122.5,70.5,123,74Zm61-18h19V68H184V56Zm55,0h19V68H239V56ZM420,74H400l-1-3-5-1v1l-3,1,1,2c8.953,3.3,22.527,4.126,27,12,2.721,2.668,2.113,9.591,2,15-3.4,3.042-3.538,7.566-9,9-4.056,4.274-26.341,4.057-32,1l-1-2c-3.014-2-4.982-1.951-6-6-2.162-1.848-2.877-5.1-3-9h20c0.607,2.393.318,1.858,2,3,1.223,1.336,5.992,2.45,8,1V97c1.139-1.139.4,0,1-2l-3-1V93h-2V92h-4l-15-5V86l-4-3c-1.153-1.676-.035-2.258-2-4V68c1.8-1.545,2.349-4.308,4-6l7-5c9.576-.591,22.867-2.53,30,2l1,2h2l1,3h1c0.96,1.219.74,1.931,2,3Q419.5,70.5,420,74ZM212,57h19v55H212V57Zm218,2h19V71h7V81h-7V98l3,1v1h5v13c-8.98.291-23.027,2.012-25-5-3.3-3.487-2.094-19.886-2-27h-5V71h5V59ZM177,112H158v-2l-3,1v1h-3v1H137v-1l-4-1a21.9,21.9,0,0,0-4-5,67.837,67.837,0,0,1,1-13l4-3V89l22-4,1-2a7.482,7.482,0,0,1-3-2l-4,1-1,2H131a34.216,34.216,0,0,1,1-8l7-5h4c9.409-2.994,27.211-.882,31,5,1.647,2.557,1,7.984,1,12v19h1Q176.5,109.5,177,112Zm135,0H293c0.1-5,1.1-22.662-1-25-0.574-2.444-1.047-2.206-2-4l-5,3v26H266V71h17v2l3-1V71h3V70c5.028-1.628,12.123.627,16,1l6,7v6h1v28Zm35-41h17c0.329,13.96,2.386,48.923-5,54h-2v1h-2v1h-4c-9.065,2.854-26.885,1.442-29-6-1.759-1.5-1.9-2.7-2-6h19v2h2c3.2,1.419,3.707-1.722,5-5h-3v1h-7c-8.822.016-9.836-1.6-14-6l-2-1c-1.153-1.689-.053-2.246-2-4-0.954-13.664-2.13-24.234,8-30,3.353-3.244,18.908-2.785,21,1V71Zm162,41H490v-2l-3,1v1h-3v1H469v-1l-4-1a21.9,21.9,0,0,0-4-5,67.837,67.837,0,0,1,1-13l4-3V89l22-4,1-2a7.482,7.482,0,0,1-3-2l-4,1-1,2H463a34.216,34.216,0,0,1,1-8l7-5h4c9.409-2.994,27.211-.882,31,5,1.647,2.557,1,7.984,1,12v19h1Zm53,0H543c0.1-5,1.1-22.662-1-25-0.574-2.444-1.047-2.206-2-4l-5,3v26H516V71h17v2l3-1V71h3V70c5.028-1.628,12.123.627,16,1l6,7v6h1v28ZM184,71h19v41H184V71Zm55,0h19v41H239V71ZM340,83c-1.72,2.135-2.033.566-3,4-2.358,2.485-.576,9.259,0,12l4,2v-1c2.762-.723,2.237-0.279,3-3,1.27-1.223,2.456-7.84,1-10h-1C343.227,84.069,342.38,84.11,340,83ZM148,101l4,1v-1c3.4-.811,4.318-2.552,5-6l-8,2v1h-1v3Zm332,0,4,1v-1c3.4-.811,4.318-2.552,5-6l-8,2c-0.844,1.135.127,0.145-1,1v3Z"/>
  <path id="Color_Fill_1" data-name="Color Fill 1" class="cls-1" d="M244,337c14.48,0.366,32.119.845,42-4l2-6h31v-4H254l-3-3,54-130c4.663-11.172,10.068-40.581,21-45q0.5,82.992,1,166l1-2c17.358-24.423,12.237-93.189,0-118l2-2,2,1,50,140h14v1c-1.316,8.972-8.289,20.662-16,23H248Zm83-13v3c16.291,0.191,30.707,8.082,43,3Z"/>
</svg>
